<?xml version="1.0" standalone="no"?>
<!DOCTYPE svg PUBLIC "-//W3C//DTD SVG 20010904//EN"
 "http://www.w3.org/TR/2001/REC-SVG-20010904/DTD/svg10.dtd">
<svg version="1.0" xmlns="http://www.w3.org/2000/svg"
 width="1086.000000pt" height="1086.000000pt" viewBox="0 0 1086.000000 1086.000000"
 preserveAspectRatio="xMidYMid meet">
<metadata>
Created by potrace 1.14, written by Peter Selinger 2001-2017
</metadata>
<g transform="translate(0.000000,1086.000000) scale(0.100000,-0.100000)"
fill="#000000" stroke="none">
<path d="M5158 10835 c-2 -1 -54 -6 -116 -9 -61 -4 -118 -8 -125 -11 -6 -2
-46 -6 -87 -10 -41 -3 -84 -8 -95 -10 -11 -2 -39 -6 -61 -9 -151 -18 -393 -65
-569 -111 -55 -14 -107 -28 -115 -30 -301 -69 -792 -267 -1159 -467 -69 -38
-129 -68 -133 -68 -4 0 -8 -3 -8 -8 0 -4 -13 -13 -29 -20 -15 -7 -48 -25 -72
-41 -75 -48 -242 -159 -287 -191 -23 -16 -47 -30 -52 -30 -4 0 -10 -4 -12 -8
-1 -4 -41 -37 -88 -72 -47 -35 -99 -75 -116 -89 -18 -14 -51 -42 -74 -61 -24
-19 -55 -46 -71 -60 -15 -14 -49 -43 -75 -65 -67 -56 -358 -346 -429 -428 -33
-38 -72 -82 -86 -97 -14 -16 -39 -45 -55 -66 -47 -61 -88 -109 -96 -112 -5 -2
-8 -10 -8 -17 0 -7 -3 -15 -8 -17 -11 -5 -242 -321 -242 -332 0 -2 -22 -37
-49 -78 -45 -67 -67 -104 -108 -178 -8 -14 -27 -47 -44 -75 -36 -61 -195 -379
-228 -455 -12 -30 -31 -73 -41 -95 -9 -22 -25 -62 -35 -90 -10 -27 -22 -54
-26 -60 -21 -30 -187 -565 -214 -690 -2 -11 -7 -33 -10 -50 -3 -16 -13 -61
-21 -100 -9 -38 -18 -83 -20 -100 -3 -16 -9 -50 -14 -75 -5 -25 -12 -63 -15
-85 -3 -22 -7 -53 -10 -70 -15 -98 -27 -208 -42 -395 -10 -117 -10 -620 -1
-750 7 -99 23 -256 33 -325 16 -113 27 -184 35 -225 5 -25 14 -74 21 -110 9
-53 33 -157 74 -330 60 -250 202 -641 344 -943 22 -48 41 -89 41 -91 0 -9 165
-305 226 -404 38 -62 73 -122 79 -133 5 -10 13 -19 17 -19 5 0 8 -6 8 -12 0
-7 9 -24 20 -38 11 -14 57 -77 101 -140 45 -63 84 -117 88 -120 4 -3 18 -21
31 -40 30 -42 27 -39 137 -170 125 -149 141 -167 303 -330 153 -153 227 -223
325 -305 33 -27 62 -53 65 -56 3 -3 27 -23 54 -43 80 -61 141 -111 144 -118 2
-5 8 -8 13 -8 5 0 35 -20 68 -45 32 -25 103 -74 157 -110 55 -36 104 -68 110
-72 5 -5 21 -14 35 -22 13 -8 62 -38 109 -66 201 -123 491 -267 712 -356 57
-23 117 -47 133 -54 66 -29 445 -152 525 -170 8 -2 71 -17 140 -35 69 -17 136
-32 150 -34 14 -2 86 -15 160 -29 74 -14 159 -28 189 -32 30 -4 61 -8 70 -10
9 -2 47 -6 83 -9 37 -4 76 -9 87 -11 136 -26 857 -26 1061 0 14 2 52 6 85 10
33 3 71 8 85 10 14 2 45 7 70 10 348 45 829 170 1190 310 233 90 542 237 732
348 54 31 100 57 103 57 3 0 11 5 18 10 7 6 59 40 117 77 163 103 469 326 546
398 6 5 32 28 59 50 172 144 438 410 604 604 15 18 42 51 93 115 13 16 33 40
46 54 12 14 22 28 22 31 0 3 10 17 23 31 25 28 102 135 162 225 22 33 42 62
46 65 10 10 136 216 199 325 144 254 318 642 413 925 53 156 136 446 153 535
2 11 7 34 11 50 3 17 7 37 9 45 1 8 5 26 8 40 6 25 12 57 20 108 3 15 12 68
20 117 46 277 61 493 61 850 -1 310 -7 422 -41 693 -28 234 -115 636 -186 862
-39 125 -111 336 -128 375 -5 11 -25 60 -45 109 -73 181 -216 481 -257 539
-11 15 -17 27 -14 27 3 0 -17 36 -44 81 -28 44 -50 82 -50 84 0 3 -30 51 -67
107 -38 57 -70 107 -72 112 -8 19 -125 181 -133 184 -4 2 -8 10 -8 17 0 8 -6
18 -13 22 -6 4 -25 26 -40 49 -15 22 -35 49 -45 60 -9 10 -33 39 -52 64 -19
25 -39 50 -45 56 -5 6 -29 33 -52 60 -23 27 -51 60 -63 74 -32 37 -223 241
-238 254 -7 6 -43 40 -81 76 -38 36 -99 92 -137 125 -37 33 -79 70 -92 83 -12
12 -27 22 -32 22 -4 0 -10 3 -12 8 -10 24 -323 259 -498 373 -211 138 -530
314 -720 398 -128 57 -159 69 -225 96 -38 15 -83 33 -100 40 -52 23 -359 124
-456 151 -111 30 -330 83 -379 90 -19 3 -38 8 -41 10 -6 3 -10 4 -184 33 -66
11 -142 22 -170 25 -27 4 -70 9 -95 11 -25 3 -70 8 -100 11 -30 2 -77 7 -105
10 -53 6 -671 14 -677 9z"/>
</g>
</svg>
